<svg xmlns="http://www.w3.org/2000/svg" width="1052.362" height="744.094"><defs><marker orient="auto" id="a" overflow="visible"><path d="M-10.69-4.437L1.328-.017l-12.018 4.42c1.92-2.61 1.91-6.18 0-8.84z" font-size="12" fill-rule="evenodd" stroke-width=".625" stroke-linejoin="round"/></marker></defs><path d="M27.714 604.377h1018.572" fill="none" stroke="#000" marker-end="url(#a)" transform="translate(0 -308.268)"/><text style="text-align:center;line-height:125%;-inkscape-font-specification:Georgia" x="27.152" y="633.552" font-size="20" letter-spacing="0" word-spacing="0" text-anchor="middle" font-family="Georgia" transform="translate(0 -308.268)"><tspan x="27.152" y="633.552">Time</tspan></text><text y="631.552" x="1029.152" style="text-align:center;line-height:125%;-inkscape-font-specification:Georgia" font-size="20" letter-spacing="0" word-spacing="0" text-anchor="middle" font-family="Georgia" transform="translate(0 -308.268)"><tspan y="631.552" x="1029.152">Time</tspan></text><text style="text-align:center;line-height:125%;-inkscape-font-specification:Georgia" x="90.571" y="666.648" font-size="18" letter-spacing="0" word-spacing="0" text-anchor="middle" font-family="Georgia" transform="translate(0 -308.268)"/><path d="M137.56 287v18.183" fill="none" stroke="#000"/><text style="text-align:center;line-height:125%;-inkscape-font-specification:Georgia" x="137.561" y="637.027" font-size="20" letter-spacing="0" word-spacing="0" text-anchor="middle" font-family="Georgia" transform="translate(0 -308.268)"><tspan x="137.561" y="637.027" dy="0 6.5659919">T1</tspan></text><text style="text-align:center;line-height:125%;-inkscape-font-specification:Georgia" x="137.357" y="666.934" font-size="18" letter-spacing="0" word-spacing="0" text-anchor="middle" font-family="Georgia" transform="translate(0 -308.268)"><tspan x="137.357" y="666.934">Commit</tspan><tspan x="137.357" y="689.434">Revision 1</tspan></text><path d="M309.172 287v18.183" fill="none" stroke="#000"/><text y="637.027" x="309.172" style="text-align:center;line-height:125%;-inkscape-font-specification:Georgia" font-size="20" letter-spacing="0" word-spacing="0" text-anchor="middle" font-family="Georgia" transform="translate(0 -308.268)"><tspan dy="0 7.5761447" y="637.027" x="309.172">T2</tspan></text><text style="text-align:center;line-height:125%;-inkscape-font-specification:Georgia" x="308.968" y="666.362" font-size="18" letter-spacing="0" word-spacing="0" text-anchor="middle" font-family="Georgia" transform="translate(0 -308.268)"><tspan x="308.968" y="666.362">Go runs</tspan><tspan x="308.968" y="688.862">against</tspan><tspan x="308.968" y="711.362">Revision 1</tspan></text><text style="text-align:center;line-height:125%;-inkscape-font-specification:Georgia" x="308.968" y="748.005" font-size="18" letter-spacing="0" word-spacing="0" text-anchor="middle" font-family="Georgia" transform="translate(0 -308.268)"><tspan x="308.968" y="748.005">Pipeline run: 1</tspan><tspan x="308.968" y="770.505" font-weight="bold">Natural order: 1</tspan></text><path d="M481.292 287v18.183" fill="none" stroke="#000"/><text y="637.027" x="481.292" style="text-align:center;line-height:125%;-inkscape-font-specification:Georgia" font-size="20" letter-spacing="0" word-spacing="0" text-anchor="middle" font-family="Georgia" transform="translate(0 -308.268)"><tspan dy="0 7.5761442" y="637.027" x="481.292">T3</tspan></text><text y="666.934" x="481.089" style="text-align:center;line-height:125%;-inkscape-font-specification:Georgia" font-size="18" letter-spacing="0" word-spacing="0" text-anchor="middle" font-family="Georgia" transform="translate(0 -308.268)"><tspan y="666.934" x="481.089">Commit</tspan><tspan y="689.434" x="481.089">Revision 2</tspan></text><path d="M654.995 287v18.183" fill="none" stroke="#000"/><text style="text-align:center;line-height:125%;-inkscape-font-specification:Georgia" x="654.995" y="637.027" font-size="20" letter-spacing="0" word-spacing="0" text-anchor="middle" font-family="Georgia" transform="translate(0 -308.268)"><tspan x="654.995" y="637.027" dy="0 8.0812206">T4</tspan></text><text y="666.362" x="654.791" style="text-align:center;line-height:125%;-inkscape-font-specification:Georgia" font-size="18" letter-spacing="0" word-spacing="0" text-anchor="middle" font-family="Georgia" transform="translate(0 -308.268)"><tspan y="666.362" x="654.791">Go runs</tspan><tspan y="688.862" x="654.791">against</tspan><tspan y="711.362" x="654.791">Revision 2</tspan></text><text y="748.005" x="654.791" style="text-align:center;line-height:125%;-inkscape-font-specification:Georgia" font-size="18" letter-spacing="0" word-spacing="0" text-anchor="middle" font-family="Georgia" transform="translate(0 -308.268)"><tspan y="748.005" x="654.791">Pipeline run: 2</tspan><tspan y="770.505" x="654.791" font-weight="bold">Natural order: 2</tspan></text><path d="M857.56 287v18.183" fill="none" stroke="#000"/><text y="637.027" x="857.561" style="text-align:center;line-height:125%;-inkscape-font-specification:Georgia" font-size="20" letter-spacing="0" word-spacing="0" text-anchor="middle" font-family="Georgia" transform="translate(0 -308.268)"><tspan dy="0 8.586297" y="637.027" x="857.561">T5</tspan></text><text style="text-align:center;line-height:125%;-inkscape-font-specification:Georgia" x="857.357" y="666.362" font-size="18" letter-spacing="0" word-spacing="0" text-anchor="middle" font-family="Georgia" transform="translate(0 -308.268)"><tspan x="857.357" y="666.362">User forces</tspan><tspan x="857.357" y="688.862">build with</tspan><tspan x="857.357" y="711.362">revision 1</tspan></text><text style="text-align:center;line-height:125%;-inkscape-font-specification:Georgia" x="857.357" y="748.005" font-size="18" letter-spacing="0" word-spacing="0" text-anchor="middle" font-family="Georgia" transform="translate(0 -308.268)"><tspan x="857.357" y="748.005">Pipeline run: 3</tspan><tspan x="857.357" y="770.505" font-weight="bold">Natural order: 1.5</tspan></text><path d="M856.83 295.82c-388.227-448.434-718.85-.43-718.85-.43" fill="none" stroke="#000" stroke-dasharray="2, 2"/></svg>