<svg xmlns="http://www.w3.org/2000/svg" width="1052.362" height="744.094"><defs><marker orient="auto" id="a" overflow="visible"><path d="M-10.69-4.437L1.328-.017l-12.018 4.42c1.92-2.61 1.91-6.18 0-8.84z" font-size="12" fill-rule="evenodd" stroke-width=".625" stroke-linejoin="round"/></marker></defs><text style="line-height:125%;-inkscape-font-specification:Georgia" x="86.512" y="491.069" font-size="24" letter-spacing="0" word-spacing="0" font-family="Georgia" transform="translate(0 -308.268)"><tspan x="86.512" y="491.069">Services</tspan></text><path fill="none" stroke="#141414" stroke-width="2" stroke-miterlimit="0" d="M30 144.094h200v60H30zM330 144.094h200v60H330z"/><text style="line-height:125%;-inkscape-font-specification:Georgia" x="393.926" y="490.677" font-size="24" letter-spacing="0" word-spacing="0" font-family="Georgia" transform="translate(10 -308.268)"><tspan x="393.926" y="490.677">DAO</tspan></text><path fill="none" stroke="#141414" stroke-width="2" stroke-miterlimit="0" d="M180 324.094h200v60H180z"/><text style="text-align:center;line-height:125%;-inkscape-font-specification:Georgia" x="279.801" y="657.069" font-size="24" letter-spacing="0" word-spacing="0" text-anchor="middle" font-family="Georgia" transform="translate(0 -308.268)"><tspan x="279.801" y="657.069">Cache</tspan></text><text style="line-height:125%;-inkscape-font-specification:Georgia" x="235.332" y="680.992" font-size="20" letter-spacing="0" word-spacing="0" font-family="Georgia" transform="translate(0 -308.268)"><tspan x="235.332" y="680.992">(Ehcache)</tspan></text><path d="M230 482.362h100M130 512.362l110 120M430 512.362l-110 120" fill="none" stroke="#000" marker-end="url(#a)" transform="translate(0 -308.268)"/><path fill="none" stroke="#141414" stroke-width="2" stroke-miterlimit="0" d="M630 124.094h250v100H630z"/><text style="line-height:125%;-inkscape-font-specification:Georgia" x="688.367" y="472.677" font-size="24" letter-spacing="0" word-spacing="0" font-family="Georgia" transform="translate(0 -308.268)"><tspan x="688.367" y="472.677">Spring ORM</tspan></text><text y="508.778" x="655.742" style="line-height:125%;-inkscape-font-specification:Georgia" font-size="24" letter-spacing="0" word-spacing="0" font-family="Georgia" transform="translate(0 -308.268)"><tspan y="508.778" x="655.742">(Hibernate, iBatis)</tspan></text><path d="M530 482.362h100" fill="none" stroke="#000" marker-end="url(#a)" transform="translate(0 -308.268)"/><text y="491.122" x="75.824" style="line-height:125%;-inkscape-font-specification:Georgia" font-size="24" letter-spacing="0" word-spacing="0" font-family="Georgia" transform="translate(970 -378.268)"><tspan y="491.122" x="75.824">Hibernate</tspan></text><path fill="none" stroke="#141414" stroke-width="2" stroke-miterlimit="0" d="M1000 74.094h200v60h-200z"/><text style="line-height:125%;-inkscape-font-specification:Georgia" x="99.936" y="491.087" font-size="24" letter-spacing="0" word-spacing="0" font-family="Georgia" transform="translate(970 -238.268)"><tspan x="99.936" y="491.087">iBatis</tspan></text><path fill="none" stroke="#141414" stroke-width="2" stroke-miterlimit="0" d="M1000 214.094h200v60h-200z"/><text y="491.122" x="80.699" style="line-height:125%;-inkscape-font-specification:Georgia" font-size="24" letter-spacing="0" word-spacing="0" font-family="Georgia" transform="translate(1290 -308.268)"><tspan y="491.122" x="80.699">Database</tspan></text><path fill="none" stroke="#141414" stroke-width="2" stroke-miterlimit="0" d="M1320 144.094h200v60h-200z"/><path d="M880 482.362l120-70M880 482.362l120 70M1200 412.178l120 70M1200 552.516l120-70" fill="none" stroke="#000" marker-end="url(#a)" transform="translate(0 -308.268)"/><g><path fill="none" stroke="#141414" stroke-width="2" stroke-miterlimit="0" d="M990-135.906h220v120H990z"/><g letter-spacing="0" word-spacing="0" text-anchor="middle" font-family="Georgia"><text style="text-align:center;line-height:125%;-inkscape-font-specification:Georgia" x="167.022" y="477.069" font-size="24" transform="translate(932.778 -569.967)"><tspan x="167.022" y="477.069">Cache</tspan></text><text style="text-align:center;line-height:125%;-inkscape-font-specification:Georgia" x="166.768" y="500.992" font-size="20" transform="translate(932.778 -569.967)"><tspan x="166.768" y="500.992">(Ehcache - Second</tspan><tspan x="166.768" y="525.992">level cache)</tspan></text></g></g><path d="M1100 382.362v-90" fill="none" stroke="#000" marker-end="url(#a)" transform="translate(0 -308.268)"/></svg>